<?xml version="1.0" encoding="UTF-8"?>
<svg id="Layer_1" data-name="Layer 1" xmlns="http://www.w3.org/2000/svg" viewBox="0 0 512 512">
  <defs>
    <style>
      .cls-1 {
        fill: aqua;
        fill-rule: evenodd;
      }

      .cls-1, .cls-2 {
        stroke-width: 0px;
      }

      .cls-2 {
        fill: #e0fc15;
      }
    </style>
  </defs>
  <path class="cls-1" d="M371.84,264.77c-.94,0-1.88-.28-2.68-.85-1.49-1.05-2.22-2.85-1.9-4.64l16.05-87.27c.25-1.34,1.07-2.5,2.25-3.18,1.18-.69,2.59-.82,3.88-.35l83.61,29.73c1.71.6,2.91,2.16,3.08,3.96.16,1.8-.74,3.54-2.31,4.44l-33.65,19.43c-2.23,1.28-5.07.53-6.35-1.7-1.28-2.22-.53-5.07,1.7-6.35l24.93-14.4-68.98-24.53-13.25,72.01,27.22-15.71c2.22-1.28,5.07-.52,6.35,1.7s.52,5.07-1.7,6.35l-35.93,20.75c-.73.41-1.52.61-2.32.61h0Z"/>
  <path class="cls-1" d="M78.95,265.87c-.81,0-1.61-.21-2.32-.63-1.18-.68-2-1.84-2.25-3.18l-16.05-87.27c-.33-1.78.41-3.59,1.89-4.64,1.49-1.04,3.43-1.13,5-.23l32.01,18.44,52.67-91.22c11.12-19.26,27.26-35.39,46.68-46.62,19.38-11.22,41.48-17.15,63.93-17.15s44.56,5.93,63.93,17.15c19.42,11.24,35.56,27.36,46.68,46.62l23.95,41.48v.02s.03.03.03.03l.04.07.02.03.04.07.02.03.04.08.02.03.04.07v.03s.05.08.05.08v.03s.05.08.05.08v.03s.04.08.04.08v.02s.04.09.04.09v.02s.04.09.04.09v.02s.04.08.04.08v.03s.03.08.03.08v.03s.03.08.03.08v.03s.03.09.03.09v.02l.02.09v.02l.02.09v.02l.02.09v.11s0,.02,0,.02v.09s0,.02,0,.02v.09s0,.02,0,.02v.09s0,.02,0,.02v.1h0v.11h0s0,.11,0,.11v.22s-.02.02-.02.02v.09s0,.02,0,.02v.09s0,0,0,0l-.02.1h0s-.02.1-.02.1v.02l-.02.09v.02s-.03.09-.03.09v.02l-.03.09h0s-.03.1-.03.1l-.04.11h0s-.03.1-.03.1v.02s-.04.08-.04.08v.02s-.05.08-.05.08v.02l-.04.09-.05.1h0s-.04.1-.04.1h0s-.05.09-.05.09l-.1.2v.02s-.06.08-.06.08h0s-.06.09-.06.09v.02s-.06.07-.06.07c-.07.09-.13.19-.2.27h0s0,.02,0,.02l-.06.07-.02.02-.06.07-.02.02-.06.07-.02.02-.07.07v.02s-.07.07-.07.07l-.08.08h-.02s-.07.07-.07.07l-.02.02-.07.06-.02.02-.07.06-.02.02-.07.06-.02.02-.07.05-.02.02-.07.06h-.03s-.07.07-.07.07h-.02s-.07.07-.07.07h-.03s-.07.06-.07.06l-.03.02-.08.04-.03.02-.07.05h-.03s-30.82,16.02-30.82,16.02l-.23.11h-.02s0,.02,0,.02l-.07.03h-.03s0,0,0,0l-.03.02-.07.02h0s-.03.02-.03.02h-.04s-.03.03-.03.03h-.04s-.03.02-.03.02h-.04s-.23.08-.23.08h-.04s-.03.02-.03.02h-.04s-.02.02-.02.02h-.05s-.07.02-.07.02h0s-.07.02-.07.02h-.03s0,0,0,0h-.03s-.07.02-.07.02h-.04s-.09.02-.09.02h0l-.1.02c-.11,0-.22.02-.33.03h-.14s-.1,0-.1,0h-.1c-.11,0-.22,0-.33-.03h-.11s-.07-.02-.07-.02h-.07c-.1-.03-.2-.05-.29-.07h-.02l-.07-.02h-.02s-.11-.04-.11-.04h-.03c-.2-.06-.39-.13-.59-.2h-.02s-.06-.04-.06-.04l-.05-.02-.09-.05-.07-.04-.04-.02h-.04s-.07-.05-.07-.05c-.16-.09-.32-.19-.46-.29h0s0,0,0,0l-.06-.05-.04-.03-.08-.07h0l-.06-.06-.03-.02-.08-.07h0s-.07-.07-.07-.07l-.05-.04-.04-.05h-.02s-.15-.16-.15-.16l-.02-.03-.13-.15-.03-.03-.05-.07h0l-.05-.07-.02-.02-.03-.05-.04-.06h0s-.06-.07-.06-.07v-.02s-.04-.06-.04-.06l-.04-.05v-.02s-.06-.07-.06-.07l-.05-.07-.02-.05-.02-.03-23.18-40.15c-7.32-12.68-17.9-23.24-30.6-30.52-12.59-7.35-27.07-11.23-41.88-11.23s-29.29,3.89-41.86,11.21c-12.72,7.31-23.3,17.86-30.63,30.54l-52.67,91.22,29.53,17.08c1.57.91,2.46,2.64,2.31,4.45-.17,1.8-1.37,3.35-3.08,3.95l-83.6,29.73c-.51.18-1.03.27-1.56.27h0Z"/>
  <path class="cls-1" d="M237.68,469.09h-81.6c-47.01,0-88.63-24.49-111.33-65.53-21.99-39.76-21.65-86.83.92-125.92,1.27-2.23,4.12-2.99,6.34-1.7,2.23,1.28,2.99,4.12,1.71,6.35-20.92,36.23-21.24,79.89-.84,116.77,21.03,38.03,59.61,60.73,103.19,60.73h81.6c2.57,0,4.65,2.08,4.65,4.65s-2.07,4.65-4.65,4.65h0Z"/>
  <path class="cls-1" d="M364.92,469.09h-33.76c-2.57,0-4.65-2.08-4.65-4.65s2.07-4.65,4.65-4.65h33.76c43.58,0,82.16-22.71,103.19-60.73,20.4-36.88,20.09-80.54-.84-116.77l-33.45-57.95c-1.28-2.22-.53-5.07,1.7-6.35,2.22-1.28,5.07-.52,6.35,1.7l33.45,57.95c22.57,39.08,22.91,86.16.92,125.92-22.69,41.04-64.31,65.53-111.33,65.53h0Z"/>
  <path class="cls-1" d="M237.68,434.36h-81.6c-33.65-.19-63.63-17.58-80.23-46.52-16.75-29.2-16.79-63.9-.09-92.83,1.28-2.22,4.13-2.98,6.35-1.7,2.22,1.29,2.98,4.13,1.7,6.35-15.02,26.03-14.98,57.26.11,83.56,14.94,26.04,41.92,41.68,72.19,41.85h81.58c2.57,0,4.65,2.08,4.65,4.65s-2.08,4.65-4.66,4.65Z"/>
  <path class="cls-1" d="M331.16,434.36c-2.57,0-4.65-2.08-4.65-4.65s2.07-4.65,4.65-4.65h33.76c30.25-.17,57.24-15.81,72.17-41.85,15.1-26.3,15.13-57.54.11-83.56l-33.46-57.94c-1.28-2.22-.52-5.07,1.7-6.35s5.07-.52,6.35,1.7l33.46,57.94c16.69,28.93,16.66,63.62-.09,92.83-16.6,28.94-46.59,46.34-80.22,46.51h-33.78Z"/>
  <path class="cls-1" d="M237.68,509.26c-.66,0-1.32-.14-1.94-.43-1.65-.76-2.7-2.41-2.7-4.22v-40.17c0-2.57,2.08-4.65,4.65-4.65s4.65,2.08,4.65,4.65v30.11l55.74-47.48-55.74-47.47v30.11c0,2.57-2.08,4.65-4.65,4.65s-4.65-2.08-4.65-4.65v-40.17c0-1.81,1.06-3.46,2.7-4.22,1.65-.75,3.58-.49,4.96.68l67.55,57.55c1.03.88,1.64,2.18,1.64,3.54s-.6,2.65-1.64,3.53l-67.55,57.54c-.86.73-1.93,1.12-3.02,1.12h0Z"/>
  <path class="cls-1" d="M79.78,301.99c-.79,0-1.59-.2-2.32-.62l-30.08-17.37c-2.23-1.28-2.98-4.13-1.7-6.35,1.28-2.23,4.13-2.98,6.35-1.7l30.08,17.37c2.22,1.28,2.98,4.12,1.7,6.35-.86,1.49-2.42,2.32-4.02,2.32Z"/>
  <path class="cls-1" d="M331.16,469.09c-2.57,0-4.65-2.08-4.65-4.65v-34.74c0-2.57,2.07-4.65,4.65-4.65s4.65,2.08,4.65,4.65v34.74c0,2.57-2.08,4.65-4.65,4.65Z"/>
  <path class="cls-2" d="M310.07,163.85c-1.02-2.05-3.07-3.58-6.14-3.58-2.56,0-4.61,1.54-5.63,3.58-24.58,50.18-55.3,65.54-79.87,77.82-10.75,5.63-20.99,10.75-28.67,17.92-11.26,10.24-17.41,25.09-16.9,41.47,0,3.07.51,5.63,1.02,8.7l12.29-7.17,89.09-50.69c-23.55,36.86-51.2,59.9-83.97,70.14-4.1,1.02-8.7,2.56-12.8,3.07-11.26,2.05-23.04,3.07-35.33,2.05-5.63-.51-11.78-1.02-17.41-2.05-3.58-.51-7.17,2.05-7.68,5.63s2.05,7.17,5.63,7.68c9.73,1.54,18.94,2.05,28.16,2.05,11.26,0,22.53-1.02,32.77-3.58,4.1,6.14,8.7,11.78,14.34,15.87,12.29,9.73,27.14,15.36,43.01,15.36,3.07,0,6.66-.51,9.73-.51,8.7-1.02,16.38-4.1,23.04-8.19s12.8-9.73,17.41-16.38c63.49-94.72,19.97-176.13,17.92-179.2h0Z"/>
</svg>