<?xml version="1.0" encoding="UTF-8"?>
<svg id="Layer_1" data-name="Layer 1" xmlns="http://www.w3.org/2000/svg" viewBox="0 0 512 512">
  <defs>
    <style>
      .cls-1 {
        stroke-width: 2px;
      }

      .cls-1, .cls-2, .cls-3 {
        fill: none;
        stroke: aqua;
        stroke-miterlimit: 10;
      }

      .cls-2, .cls-4 {
        font-family: JUSTSans-ExBd, 'JUST Sans';
        font-size: 225.74px;
      }

      .cls-4 {
        fill: aqua;
      }

      .cls-3 {
        stroke-width: 16px;
      }

      .cls-5 {
        fill: #e0fc15;
        stroke-width: 0px;
      }
    </style>
  </defs>
  <circle class="cls-3" cx="256" cy="223.32" r="185.98"/>
  <g>
    <text class="cls-2" transform="translate(102.58 286.48)"><tspan x="0" y="0">50</tspan></text>
    <text class="cls-4" transform="translate(94.44 281.57)"><tspan x="0" y="0">50</tspan></text>
  </g>
  <path class="cls-1" d="M255.23,398.43c-.69,0-1.39-.31-1.91-.92l-30.11-35.05c-.77-.9-1.01-2.26-.59-3.44.42-1.18,1.41-1.95,2.5-1.95h14.68v-75.8c0-1.74,1.21-3.15,2.71-3.15h25.45c1.5,0,2.71,1.41,2.71,3.15v75.8h14.68c1.09,0,2.08.77,2.5,1.95.42,1.18.19,2.54-.59,3.44l-30.11,35.05c-.53.62-1.22.92-1.91.92Z"/>
  <path class="cls-5" d="M220.67,362.29l32.12,32.09,32.12-32.09h-14.78c-2.04,0-3.69-1.65-3.69-3.69v-88.68h-27.3v88.68c0,2.04-1.65,3.69-3.69,3.69h-14.78Z"/>
</svg>