<?xml version="1.0" encoding="UTF-8"?>
<svg id="Layer_1" data-name="Layer 1" xmlns="http://www.w3.org/2000/svg" viewBox="0 0 512 512">
  <defs>
    <style>
      .cls-1 {
        fill: aqua;
        fill-rule: evenodd;
      }

      .cls-1, .cls-2 {
        stroke-width: 0px;
      }

      .cls-2 {
        fill: #e0fc15;
      }
    </style>
  </defs>
  <path class="cls-1" d="M287.4,70.31l47.88,27.65-148.97,86.01v67.74l43.2,24.94v-67.74l148.97-86.01,47.88,27.65c3.18,1.84,5,4.99,5,8.66v91.06c-6.73-1.35-13.68-2.06-20.8-2.06-58.23,0-105.43,47.2-105.43,105.43,0,14.21,2.82,27.75,7.91,40.12l-25.64,14.81c-3.18,1.84-6.82,1.84-10,0l-130.11-75.12H20c-4.42,0-8-3.58-8-8s3.58-8,8-8h113.43v-70.01H59.49c-4.42,0-8-3.58-8-8s3.58-8,8-8h73.94v-70.01H20c-4.42,0-8-3.58-8-8s3.58-8,8-8h127.29l104.78-60.5h-54.03c-4.42,0-8-3.58-8-8s3.58-8,8-8h84.36c1.77,0,3.47.5,5,1.38h0Z"/>
  <path class="cls-2" d="M410.57,264.2c-49.39,0-89.43,40.04-89.43,89.43s40.04,89.43,89.43,89.43,89.43-40.04,89.43-89.43-40.04-89.43-89.43-89.43ZM461.09,336.26h0c-17.63,17.8-35.15,35.71-52.86,53.43-5.18,5.18-13.58,5.18-18.76,0l-29.39-29.39c-5.18-5.18-5.18-13.58,0-18.76,5.18-5.18,13.58-5.18,18.76,0l19.98,19.98,43.49-43.92c5.15-5.2,13.55-5.21,18.73-.06,5.18,5.15,5.2,13.53.06,18.72Z"/>
  <path class="cls-1" d="M148.19,68.93H59.49c-4.42,0-8,3.58-8,8s3.58,8,8,8h88.69c4.42,0,8-3.58,8-8s-3.58-8-8-8Z"/>
</svg>