<?xml version="1.0" encoding="UTF-8"?>
<svg id="Layer_1" data-name="Layer 1" xmlns="http://www.w3.org/2000/svg" viewBox="0 0 512 512">
  <defs>
    <style>
      .cls-1 {
        letter-spacing: 0em;
      }

      .cls-2 {
        letter-spacing: 0em;
      }

      .cls-3 {
        letter-spacing: 0em;
      }

      .cls-4 {
        letter-spacing: 0em;
      }

      .cls-5 {
        font-family: JUSTSans-Rg, 'JUST Sans';
        font-size: 42px;
      }

      .cls-5, .cls-6 {
        fill: aqua;
      }

      .cls-6, .cls-7 {
        stroke-width: 0px;
      }

      .cls-7 {
        fill: #e0fc15;
      }
    </style>
  </defs>
  <path class="cls-6" d="M495.5,190.86l-84.29-33.71c-2.01-.8-4.25-.8-6.26,0l-13.73,5.49v-58.35c0-2.3-.97-4.48-2.47-5.96-13.33-13.32-58.62-58.63-59.09-59.08-1.63-1.59-3.78-2.39-5.87-2.39H113.08c-4.66,0-8.43,3.77-8.43,8.43v414.69c0,4.66,3.77,8.43,8.43,8.43h269.72c4.66,0,8.43-3.77,8.43-8.43v-124.09l13.57,5.43c2.14.87,4.36.9,6.58,0l84.13-33.65c3.2-1.28,5.3-4.38,5.3-7.83v-101.14c0-3.35-2.05-6.55-5.3-7.83h0ZM332.22,65.63l30.22,30.22h-30.22v-30.22ZM121.51,451.54v-33.71h252.86v33.71H121.51ZM374.37,400.97H121.51V53.71h193.86v50.57c0,4.66,3.77,8.43,8.43,8.43h50.57v56.67l-53.7,21.48c-3.05,1.24-5.3,4.16-5.3,8v100.97c0,3.45,2.1,6.55,5.3,7.83l53.7,21.48v71.84ZM399.65,321.09c-6.87-2.75-60.8-24.32-67.43-26.97v-82.99l67.43,26.97v82.99ZM408.08,223.32l-61.59-24.64c12.01-4.8,46.4-18.56,61.59-24.64l61.59,24.64-61.59,24.64ZM483.94,294.12l-67.43,26.97v-82.99l67.43-26.97v82.99Z"/>
  <path class="cls-7" d="M191.83,100.01l-36.18,36.18-10.9-10.9c-3.29-3.29-8.63-3.29-11.92,0-3.29,3.29-3.29,8.63,0,11.92l16.86,16.86c3.29,3.29,8.63,3.29,11.92,0l42.14-42.14c3.29-3.29,3.29-8.63,0-11.92s-8.63-3.29-11.92,0Z"/>
  <path class="cls-7" d="M191.83,175.87l-36.18,36.18-10.9-10.9c-3.29-3.29-8.63-3.29-11.92,0-3.29,3.29-3.29,8.63,0,11.92l16.86,16.86c3.29,3.29,8.63,3.29,11.92,0l42.14-42.14c3.29-3.29,3.29-8.63,0-11.92s-8.63-3.29-11.92,0Z"/>
  <path class="cls-7" d="M191.83,251.73l-36.18,36.18-10.9-10.9c-3.29-3.29-8.63-3.29-11.92,0-3.29,3.29-3.29,8.63,0,11.92l16.86,16.86c3.29,3.29,8.63,3.29,11.92,0l42.14-42.14c3.29-3.29,3.29-8.63,0-11.92s-8.63-3.29-11.92,0h0Z"/>
  <path class="cls-7" d="M191.83,327.58l-36.18,36.18-10.9-10.9c-3.29-3.29-8.63-3.29-11.92,0-3.29,3.29-3.29,8.63,0,11.92l16.86,16.86c3.29,3.29,8.63,3.29,11.92,0l42.14-42.14c3.29-3.29,3.29-8.63,0-11.92s-8.63-3.29-11.92,0Z"/>
  <text class="cls-5" transform="translate(207.16 142.64)"><tspan class="cls-3" x="0" y="0">S</tspan><tspan x="25.41" y="0">tyle</tspan></text>
  <text class="cls-5" transform="translate(207.16 223.32)"><tspan x="0" y="0">Si</tspan><tspan class="cls-2" x="35.28" y="0">z</tspan><tspan x="55.73" y="0">e</tspan></text>
  <text class="cls-5" transform="translate(207.16 300.71)"><tspan class="cls-1" x="0" y="0">L</tspan><tspan x="22.85" y="0">ogo</tspan></text>
  <text class="cls-5" transform="translate(207.16 378.49)"><tspan class="cls-2" x="0" y="0">C</tspan><tspan x="28.94" y="0">olou</tspan><tspan class="cls-4" x="112.1" y="0">r</tspan></text>
</svg>