<?xml version="1.0" encoding="UTF-8"?>
<!DOCTYPE svg PUBLIC "-//W3C//DTD SVG 1.1//EN" "http://www.w3.org/Graphics/SVG/1.1/DTD/svg11.dtd">
<!-- Creator: CorelDRAW -->
<svg xmlns="http://www.w3.org/2000/svg" xml:space="preserve" width="4.25669in" height="2.02842in" version="1.1" style="shape-rendering:geometricPrecision; text-rendering:geometricPrecision; image-rendering:optimizeQuality; fill-rule:evenodd; clip-rule:evenodd"
viewBox="0 0 4640.1 2211.12"
 xmlns:xlink="http://www.w3.org/1999/xlink"
 xmlns:xodm="http://www.corel.com/coreldraw/odm/2003">
 <defs>
  <style type="text/css">
   <![CDATA[
    .str0 {stroke:#01257D;stroke-width:15.14;stroke-miterlimit:10}
    .fil3 {fill:#01257D}
    .fil1 {fill:aqua;fill-rule:nonzero}
    .fil0 {fill:#01257D;fill-rule:nonzero}
    .fil2 {fill:#01257D;fill-rule:nonzero}
   ]]>
  </style>
 </defs>
 <g id="Layer_x0020_1">
  <metadata id="CorelCorpID_0Corel-Layer"/>
  <g id="_1613171645424">
   <path class="fil0" d="M2044.91 0l0 462.71 73.28 -31.55 64.75 27.88 0 -251.99c325.75,156.47 482.66,524.31 407.46,875.78 -46.8,218.78 -204.75,428.58 -407.46,524.28l0 -291.5 -31.57 21.97 -28.4 19.77 -17.25 -12.02 -60.81 -42.32 0 732.49 138.03 152.82 0 -433.31c816.79,-334.59 711.59,-1537.89 -138.03,-1755.01z"/>
   <polygon class="fil1 str0" points="2158.75,841.71 2158.75,1267.83 2493.44,1034.94 2493.44,655.37 "/>
   <polygon class="fil1 str0" points="1789.53,630.37 2119.06,821.86 2446.85,630.37 2118.19,488.91 "/>
   <polygon class="fil1 str0" points="2098.35,849.47 2098.35,1275.6 1763.65,1042.71 1763.65,663.14 "/>
   <polygon class="fil2" points="357.49,1758.63 357.49,1434.03 394.16,1434.03 394.16,1576.4 574.34,1576.4 574.34,1434.03 611.01,1434.03 611.01,1758.63 574.34,1758.63 574.34,1609 394.16,1609 394.16,1758.63 "/>
   <polygon class="fil2" points="996.7,1434.03 996.7,1466.62 817.43,1466.62 817.43,1576.4 986.05,1576.4 986.05,1609.02 817.43,1609.02 817.43,1726.03 998.96,1726.03 998.96,1758.62 780.76,1758.62 780.76,1434.03 "/>
   <path class="fil2" d="M1237.3 1627.35l116.11 0 -57.95 -139.9 -58.16 139.9zm43.46 -193.32l29.44 0 136.94 324.61 -39.17 0 -40.96 -98.71 -143.07 0 -40.98 98.71 -39.15 0 136.95 -324.61z"/>
   <path class="fil2" d="M1731.65 1602.43c44.14,0 70.85,-22.86 70.85,-67.92 0,-45.04 -26.71,-67.89 -70.85,-67.89l-98.47 0 0 135.81 98.47 0zm-135.14 -168.4l135.14 0c63.83,0 107.98,33.96 107.98,100.48 0,66.57 -44.15,100.53 -107.98,100.53l-98.47 0 0 123.58 -36.67 0 0 -324.59z"/>
   <path class="fil2" d="M2361.69 2044.99l116.11 0 -57.94 -139.89 -58.16 139.89zm43.45 -193.32l29.44 0 136.95 324.62 -39.17 0 -40.95 -98.71 -143.07 0 -40.97 98.71 -39.15 0 136.94 -324.62z"/>
   <path class="fil2" d="M2596.46 2013.97c0,-96.67 61.12,-166.82 160.03,-166.82 35.09,0 81.26,7.02 109.11,30.09l-19.23 26.72c-26.72,-16.75 -58.42,-24.22 -89.89,-24.22 -80.58,0 -122.45,57.95 -122.45,134.23 0,76.28 41.87,134.22 122.45,134.22 31.47,0 63.16,-7.45 89.89,-24.2l19.23 26.7c-27.86,23.07 -74.02,30.11 -109.11,30.11 -98.91,0 -160.03,-70.17 -160.03,-166.83z"/>
   <polygon class="fil2" points="2965.72,1851.67 2965.72,2011.93 3134.57,1851.67 3183.92,1851.67 3038.61,1989.53 3188,2176.27 3143.42,2176.27 3013.25,2013.28 2965.72,2059.01 2965.72,2176.27 2929.04,2176.27 2929.04,1851.67 "/>
   <path class="fil2" d="M3317.75 2044.99l116.11 0 -57.95 -139.89 -58.16 139.89zm43.46 -193.32l29.44 0 136.94 324.62 -39.17 0 -40.96 -98.71 -143.07 0 -40.98 98.71 -39.15 0 136.95 -324.62z"/>
   <path class="fil2" d="M3712.58 1847.14c41.43,0 90.77,11.08 124.04,36.89l-20.6 25.35c-29.88,-21.96 -66.98,-29.65 -103.44,-29.65 -80.59,0 -122.46,57.94 -122.46,134.23 0,76.28 41.87,134.25 122.46,134.25 29.2,0 67.67,-6.58 91.66,-24.01l0 -97.55 -84.87 0 0 -32.59 119.28 0 0 148.48c-34.85,28.75 -81.94,38.26 -126.08,38.26 -98.92,0 -160.04,-70.17 -160.04,-166.83 0,-96.64 61.12,-166.82 160.04,-166.82z"/>
   <polygon class="fil2" points="3913.41,1851.67 3950.08,1851.67 3950.08,2176.26 3913.41,2176.26 "/>
   <polygon class="fil2" points="4029.32,2176.27 4029.32,1851.67 4072.34,1851.67 4249.35,2122.17 4249.35,1851.67 4286.02,1851.67 4286.02,2176.27 4243,2176.27 4066,1905.76 4066,2176.27 "/>
   <path class="fil2" d="M4514.02 1847.14c41.44,0 90.77,11.08 124.04,36.89l-20.6 25.35c-29.88,-21.96 -66.98,-29.65 -103.44,-29.65 -80.58,0 -122.45,57.94 -122.45,134.23 0,76.28 41.86,134.25 122.45,134.25 29.2,0 67.67,-6.58 91.66,-24.01l0 -97.55 -84.87 0 0 -32.59 119.28 0 0 148.48c-34.85,28.75 -81.93,38.26 -126.08,38.26 -98.92,0 -160.03,-70.17 -160.03,-166.83 0,-96.64 61.11,-166.82 160.03,-166.82z"/>
   <path class="fil2" d="M633.23 1978.98l0 -130.99 -69.95 0 0 135.2c23.09,-1.54 46.49,-2.89 69.95,-4.21z"/>
   <path class="fil2" d="M434.91 1992.95l0 -144.96 -77.43 0 0 152c25.54,-2.48 51.37,-4.8 77.43,-7.04z"/>
   <path class="fil2" d="M817.73 1971.08l-28.14 -15.56c-7.56,-4.06 -13.21,-8.6 -16.97,-13.58 -3.78,-5 -5.67,-10.34 -5.67,-16.07 0,-8.15 3.17,-14.6 9.51,-19.36 6.33,-4.76 15.01,-7.13 26.03,-7.13 9.94,0 22.03,2.72 36.21,8.15 14.19,5.43 29.2,13.12 45.06,23.09l0 -76.97c-16.62,-5.73 -31.7,-9.95 -45.3,-12.69 -13.56,-2.71 -26.16,-4.06 -37.78,-4.06 -31.57,0 -57.29,8.45 -77.21,25.35 -19.93,16.91 -29.88,38.57 -29.88,64.99 0,17.65 4.5,33.52 13.06,47.84 36.52,-1.67 73.67,-2.91 111.07,-4z"/>
   <path class="fil2" d="M1788.36 2011.89l-101.14 -174.55 -5.65 0 -32.22 160.24c47.23,4.41 93.68,9.15 139,14.31z"/>
   <path class="fil2" d="M1331.02 1975.48c4.15,-13.17 10.49,-25.07 19.51,-35.46 16.69,-19.25 37.24,-28.87 61.69,-28.87 24.61,0 45.21,9.63 61.81,28.87 11.06,12.84 18.1,27.99 21.79,45.09 27.74,1.95 55.42,3.93 82.58,6.19 -1.7,-16.82 -5.37,-32.78 -11.21,-47.88 -8.24,-21.19 -20.34,-39.87 -36.32,-56.04 -15.86,-16.15 -34,-28.5 -54.45,-37.13 -20.47,-8.6 -41.84,-12.9 -64.2,-12.9 -22.34,0 -43.7,4.28 -64.08,12.8 -20.36,8.51 -38.24,20.79 -53.64,36.8 -16.3,16.75 -28.63,35.72 -37.02,56.92 -3.61,9.12 -6.28,18.6 -8.32,28.29 27.57,0.94 54.8,2.06 81.86,3.33z"/>
   <path class="fil2" d="M1039.44 1968.26c26.27,0.09 52.47,0.22 78.32,0.61l0 -52.29 103.92 0 0 -68.59 -286.62 0 0 68.59 104.38 0 0 51.68z"/>
   <path class="fil0" d="M1973.91 2035.7l-40.15 -198.36 -5.89 0 -98.06 179.42c49.32,5.93 97.21,12.3 144.09,18.94z"/>
   <path class="fil2" d="M1496.92 2034.61c-3.31,18.9 -10.84,35.39 -22.88,49.28 -16.63,19.18 -37.22,28.75 -61.82,28.75 -24.44,0 -45.01,-9.63 -61.7,-28.86 -13.93,-16.08 -21.69,-35.58 -23.97,-58.14 -26.92,-1.11 -53.83,-2.17 -81.19,-3.02 1.06,20.33 4.98,39.56 12.13,57.53 8.36,21.08 20.7,39.95 36.99,56.71 15.71,16.17 33.7,28.53 54.01,37.13 20.3,8.63 41.55,12.9 63.73,12.9 26.12,0 50.82,-5.87 74.13,-17.64 23.33,-11.78 43,-28.31 58.99,-49.58 11.32,-14.95 19.85,-31.48 25.57,-49.58 3.07,-9.63 5.17,-19.65 6.61,-29.95 -26.6,-2 -53.51,-3.8 -80.61,-5.54z"/>
   <path class="fil0" d="M1728.83 2053.1l77.93 135.16 5.19 0 65.05 -119.56c-48.35,-5.58 -97.75,-10.78 -148.18,-15.6z"/>
   <path class="fil2" d="M1639.79 2045.1l-26.38 131.16 69.96 0 23.66 -125.27c-22.2,-2.06 -44.62,-4 -67.24,-5.89z"/>
   <path class="fil0" d="M1908.56 2072.28l19.32 103.98 74.48 0 -19.12 -94.53c-24.7,-3.21 -49.38,-6.41 -74.67,-9.45z"/>
   <path class="fil2" d="M887.72 2020.3c-42.5,0.74 -84.45,1.82 -125.92,3.24l17.62 9.88c2.56,1.5 6.17,3.6 10.84,6.32 29.29,16.75 43.93,31.85 43.93,45.3 0,9.34 -4.11,17.01 -12.34,22.97 -8.21,5.97 -19.11,8.95 -32.72,8.95 -13.43,0 -27.2,-2.5 -41.31,-7.48 -14.12,-5 -31.29,-13.67 -51.51,-26.05l6.56 87.62c17.21,5.43 32.98,9.43 47.32,11.99 14.34,2.57 27.62,3.85 39.85,3.85 36.06,0 65.01,-9.84 86.82,-29.52 21.81,-19.71 32.72,-45.54 32.72,-77.55 0,-20.68 -5.54,-38.56 -16.65,-53.67 -1.41,-1.91 -3.47,-3.91 -5.21,-5.86z"/>
   <path class="fil2" d="M563.28 2032.78l0 3.57c0,25.66 -5.48,45.21 -16.42,58.64 -10.94,13.45 -26.81,20.16 -47.65,20.16 -21.58,0 -37.7,-7.21 -48.35,-21.64 -8.91,-12.08 -13.86,-29.57 -15.29,-51.88 -26.03,2.02 -51.8,4.15 -77.33,6.41 1.85,41.95 13.36,75.41 35.59,99.46 24.22,26.27 58.14,39.41 101.77,39.41 43.15,0 76.89,-13.25 101.18,-39.74 24.31,-26.48 36.45,-63.42 36.45,-110.82l0 -7.35c-23.44,1.2 -46.89,2.4 -69.96,3.79z"/>
   <path class="fil2" d="M1039.44 2019.31l0 156.95 78.32 0 0 -156.54c-25.81,-0.35 -52.14,-0.33 -78.32,-0.41z"/>
   <path class="fil0" d="M57.97 1825.33c2.36,-138.11 85.05,-275.14 236.85,-322.35l0 -63.44c-170.78,50.37 -289.98,211.67 -294.81,385.79 4.84,174.12 124.04,335.43 294.81,385.8l0 -63.44c-151.79,-47.21 -234.49,-184.24 -236.85,-322.35z"/>
   <path class="fil3" d="M281.82 2046.61c-48.98,-14.24 -86.78,-50.17 -111.18,-94.16 -27.15,-48.96 -38.83,-109.73 -29.44,-165.09l0.19 -1.05c7.75,-44.3 26.49,-87.16 55.68,-121.62 22.71,-26.83 51.18,-47.77 84.07,-60.42l11.62 -4.47 0 55.26 -5.19 2.21c-41.83,17.87 -73.19,49.96 -90.42,91.99 -9.22,22.5 -13.84,46.79 -14.11,71.07 -0.27,24.4 3.85,48.91 12.21,71.83 16.55,45.47 48.67,82.48 92.62,103.25l4.9 2.31 0 52.07 -10.94 -3.17z"/>
  </g>
 </g>
</svg>
