<?xml version="1.0" encoding="UTF-8"?>
<!DOCTYPE svg PUBLIC "-//W3C//DTD SVG 1.1//EN" "http://www.w3.org/Graphics/SVG/1.1/DTD/svg11.dtd">
<!-- Creator: CorelDRAW -->
<svg xmlns="http://www.w3.org/2000/svg" xml:space="preserve" width="0.464988in" height="1.02437in" version="1.1" style="shape-rendering:geometricPrecision; text-rendering:geometricPrecision; image-rendering:optimizeQuality; fill-rule:evenodd; clip-rule:evenodd"
viewBox="0 0 1181.09 2601.95"
 xmlns:xlink="http://www.w3.org/1999/xlink"
 xmlns:xodm="http://www.corel.com/coreldraw/odm/2003">
 <defs>
  <style type="text/css">
   <![CDATA[
    .str0 {stroke:#01257D;stroke-width:35.28;stroke-miterlimit:10}
    .fil1 {fill:aqua;fill-rule:nonzero}
    .fil0 {fill:#01257D;fill-rule:nonzero}
   ]]>
  </style>
 </defs>
 <g id="Layer_x0020_1">
  <metadata id="CorelCorpID_0Corel-Layer"/>
  <g id="_1714049471584">
   <path class="fil0" d="M352.07 0l0 550.17 87.13 -37.51 76.98 33.15 0 -299.63c387.32,186.05 573.89,623.42 484.48,1041.32 -55.64,260.13 -243.45,509.59 -484.48,623.38l0 -346.61 -37.53 26.12 -33.77 23.51 -20.51 -14.29 -72.3 -50.32 0 870.95 164.11 181.7 0 -515.22c971.18,-397.83 846.09,-1828.57 -164.11,-2086.73z"/>
   <polygon class="fil1 str0" points="487.41,1000.81 487.41,1507.47 885.37,1230.56 885.37,779.25 "/>
   <g>
    <polygon class="fil1 str0" points="48.41,749.51 440.22,977.21 829.97,749.51 439.19,581.32 "/>
    <polygon class="fil1 str0" points="415.6,1010.03 415.6,1516.7 17.64,1239.79 17.64,788.48 "/>
   </g>
  </g>
 </g>
</svg>
